<svg width="30" height="30" viewBox="0 0 30 30" fill="none" xmlns="http://www.w3.org/2000/svg">
<path opacity="0.3" d="M15.061 6.353L9.96316 12.4637C9.53723 12.9742 8.77761 13.0432 8.2665 12.6178C7.75538 12.1923 7.68633 11.4335 8.11225 10.923L14.1356 3.70297C14.6172 3.12567 15.5049 3.12567 15.9865 3.70297L22.0098 10.923C22.4357 11.4335 22.3667 12.1923 21.8556 12.6178C21.3445 13.0432 20.5848 12.9742 20.1589 12.4637L15.061 6.353Z" fill="#6993FF"/>
<path fill-rule="evenodd" clip-rule="evenodd" d="M4.82119 11.6933H25.3005C25.9658 11.6933 26.5052 12.2321 26.5052 12.8967C26.5052 13.0555 26.4737 13.2128 26.4125 13.3595L22.0109 23.9118C21.4497 25.257 20.1338 26.1333 18.6749 26.1333H11.4469C9.98788 26.1333 8.672 25.257 8.11086 23.9118L3.70919 13.3595C3.4533 12.746 3.74372 12.0415 4.35786 11.7859C4.50467 11.7248 4.66214 11.6933 4.82119 11.6933ZM15.0609 21.32C16.3915 21.32 17.4702 20.2425 17.4702 18.9133C17.4702 17.5842 16.3915 16.5067 15.0609 16.5067C13.7302 16.5067 12.6515 17.5842 12.6515 18.9133C12.6515 20.2425 13.7302 21.32 15.0609 21.32Z" fill="#6993FF"/>
</svg>
