<svg width="30" height="30" viewBox="0 0 30 30" fill="none" xmlns="http://www.w3.org/2000/svg">
<path opacity="0.3" fill-rule="evenodd" clip-rule="evenodd" d="M3.46253 13.9336C2.87642 14.519 2.87642 15.4683 3.46253 16.0537L6.45101 19.0389C7.03712 19.6244 7.98739 19.6244 8.5735 19.0389L11.562 16.0537C12.1481 15.4683 12.1481 14.519 11.562 13.9336L8.5735 10.9484C7.98739 10.363 7.03712 10.363 6.451 10.9484L3.46253 13.9336ZM17.9185 13.9336C17.3324 14.519 17.3324 15.4683 17.9185 16.0537L20.907 19.0389C21.4931 19.6244 22.4434 19.6244 23.0295 19.0389L26.018 16.0537C26.6041 15.4683 26.6041 14.519 26.018 13.9336L23.0295 10.9484C22.4434 10.363 21.4931 10.363 20.907 10.9484L17.9185 13.9336Z" fill="#6993FF"/>
<path fill-rule="evenodd" clip-rule="evenodd" d="M10.6906 6.71358C10.1044 7.29905 10.1044 8.24827 10.6906 8.83373L13.679 11.8189C14.2651 12.4044 15.2154 12.4044 15.8015 11.8189L18.79 8.83373C19.3761 8.24827 19.3761 7.29905 18.79 6.71358L15.8015 3.72842C15.2154 3.14296 14.2651 3.14296 13.679 3.72842L10.6906 6.71358ZM10.6906 21.1536C10.1044 21.739 10.1044 22.6883 10.6906 23.2737L13.679 26.2589C14.2651 26.8444 15.2154 26.8444 15.8015 26.2589L18.79 23.2737C19.3761 22.6883 19.3761 21.739 18.79 21.1536L15.8015 18.1684C15.2154 17.583 14.2651 17.583 13.679 18.1684L10.6906 21.1536Z" fill="#6993FF"/>
</svg>
