<svg width="1488" height="79" viewBox="0 0 1488 79" fill="none" xmlns="http://www.w3.org/2000/svg">
<g clip-path="url(#clip0_200_2919)">
<rect width="1487.76" height="78.2167" transform="translate(0.236572)" fill="white"/>
<rect x="0.236572" y="64" width="1235" height="1" fill="#EEEFF3"/>
<path opacity="0.3" d="M1037.81 42.9675C1037.34 42.4976 1037.34 41.7357 1037.81 41.2658C1038.28 40.7958 1039.04 40.7958 1039.51 41.2658L1044.33 46.0791C1044.8 46.549 1044.8 47.311 1044.33 47.7809C1043.86 48.2508 1043.1 48.2508 1042.63 47.7809L1037.81 42.9675Z" fill="#6993FF"/>
<path fill-rule="evenodd" clip-rule="evenodd" d="M1025.41 36.1C1025.41 40.7521 1029.18 44.5233 1033.84 44.5233C1038.5 44.5233 1042.27 40.7521 1042.27 36.1C1042.27 31.4479 1038.5 27.6767 1033.84 27.6767C1029.18 27.6767 1025.41 31.4479 1025.41 36.1ZM1039.86 36.1C1039.86 39.4229 1037.17 42.1167 1033.84 42.1167C1030.51 42.1167 1027.82 39.4229 1027.82 36.1C1027.82 32.7771 1030.51 30.0833 1033.84 30.0833C1037.17 30.0833 1039.86 32.7771 1039.86 36.1Z" fill="#6993FF"/>
<path opacity="0.3" fill-rule="evenodd" clip-rule="evenodd" d="M1076.46 35.9336C1075.88 36.519 1075.88 37.4683 1076.46 38.0537L1079.45 41.0389C1080.04 41.6244 1080.99 41.6244 1081.57 41.0389L1084.56 38.0537C1085.15 37.4683 1085.15 36.519 1084.56 35.9336L1081.57 32.9484C1080.99 32.363 1080.04 32.363 1079.45 32.9484L1076.46 35.9336ZM1090.92 35.9336C1090.33 36.519 1090.33 37.4683 1090.92 38.0537L1093.91 41.0389C1094.49 41.6244 1095.44 41.6244 1096.03 41.0389L1099.02 38.0537C1099.6 37.4683 1099.6 36.519 1099.02 35.9336L1096.03 32.9484C1095.44 32.363 1094.49 32.363 1093.91 32.9484L1090.92 35.9336Z" fill="#6993FF"/>
<path fill-rule="evenodd" clip-rule="evenodd" d="M1083.69 28.7136C1083.1 29.299 1083.1 30.2483 1083.69 30.8337L1086.68 33.8189C1087.27 34.4044 1088.22 34.4044 1088.8 33.8189L1091.79 30.8337C1092.38 30.2483 1092.38 29.299 1091.79 28.7136L1088.8 25.7284C1088.22 25.143 1087.27 25.143 1086.68 25.7284L1083.69 28.7136ZM1083.69 43.1536C1083.1 43.739 1083.1 44.6883 1083.69 45.2737L1086.68 48.2589C1087.27 48.8444 1088.22 48.8444 1088.8 48.2589L1091.79 45.2737C1092.38 44.6883 1092.38 43.739 1091.79 43.1536L1088.8 40.1684C1088.22 39.583 1087.27 39.583 1086.68 40.1684L1083.69 43.1536Z" fill="#6993FF"/>
<rect opacity="0.3" x="1142.26" y="27.6767" width="3.614" height="19.2533" rx="1.807" fill="#6993FF"/>
<rect x="1136.24" y="33.6933" width="3.614" height="13.2367" rx="1.807" fill="#6993FF"/>
<rect x="1148.28" y="36.1" width="3.614" height="10.83" rx="1.807" fill="#6993FF"/>
<rect x="1130.21" y="38.5067" width="3.614" height="8.42333" rx="1.807" fill="#6993FF"/>
<path opacity="0.3" d="M1194.06 28.353L1188.96 34.4637C1188.54 34.9742 1187.78 35.0432 1187.27 34.6178C1186.76 34.1923 1186.69 33.4335 1187.11 32.923L1193.14 25.703C1193.62 25.1257 1194.5 25.1257 1194.99 25.703L1201.01 32.923C1201.44 33.4335 1201.37 34.1923 1200.86 34.6178C1200.34 35.0432 1199.58 34.9742 1199.16 34.4637L1194.06 28.353Z" fill="#6993FF"/>
<path fill-rule="evenodd" clip-rule="evenodd" d="M1183.82 33.6933H1204.3C1204.97 33.6933 1205.51 34.2321 1205.51 34.8967C1205.51 35.0555 1205.47 35.2128 1205.41 35.3595L1201.01 45.9118C1200.45 47.257 1199.13 48.1333 1197.67 48.1333H1190.45C1188.99 48.1333 1187.67 47.257 1187.11 45.9118L1182.71 35.3595C1182.45 34.746 1182.74 34.0415 1183.36 33.7859C1183.5 33.7248 1183.66 33.6933 1183.82 33.6933ZM1194.06 43.32C1195.39 43.32 1196.47 42.2425 1196.47 40.9133C1196.47 39.5842 1195.39 38.5067 1194.06 38.5067C1192.73 38.5067 1191.65 39.5842 1191.65 40.9133C1191.65 42.2425 1192.73 43.32 1194.06 43.32Z" fill="#6993FF"/>
<rect x="1237.43" y="27.6767" width="8.43267" height="8.42333" rx="1.5" fill="#6993FF"/>
<path opacity="0.3" fill-rule="evenodd" clip-rule="evenodd" d="M1248.27 29.1767C1248.27 28.3482 1248.94 27.6767 1249.77 27.6767H1255.2C1256.03 27.6767 1256.7 28.3482 1256.7 29.1767V34.6C1256.7 35.4284 1256.03 36.1 1255.2 36.1H1249.77C1248.94 36.1 1248.27 35.4284 1248.27 34.6V29.1767ZM1237.43 40.0067C1237.43 39.1782 1238.1 38.5067 1238.93 38.5067H1244.36C1245.19 38.5067 1245.86 39.1782 1245.86 40.0067V45.43C1245.86 46.2584 1245.19 46.93 1244.36 46.93H1238.93C1238.1 46.93 1237.43 46.2584 1237.43 45.43V40.0067ZM1249.77 38.5067C1248.94 38.5067 1248.27 39.1782 1248.27 40.0067V45.43C1248.27 46.2584 1248.94 46.93 1249.77 46.93H1255.2C1256.03 46.93 1256.7 46.2584 1256.7 45.43V40.0067C1256.7 39.1782 1256.03 38.5067 1255.2 38.5067H1249.77Z" fill="#6993FF"/>
<path d="M1314.11 38.2179H1312.85L1309.08 32.5089V38.2179H1307.83V30.5619H1309.08L1312.85 36.2599V30.5619H1314.11V38.2179ZM1316.39 31.3539C1316.16 31.3539 1315.97 31.2769 1315.82 31.1229C1315.66 30.9689 1315.59 30.7782 1315.59 30.5509C1315.59 30.3235 1315.66 30.1329 1315.82 29.9789C1315.97 29.8249 1316.16 29.7479 1316.39 29.7479C1316.61 29.7479 1316.8 29.8249 1316.95 29.9789C1317.11 30.1329 1317.18 30.3235 1317.18 30.5509C1317.18 30.7782 1317.11 30.9689 1316.95 31.1229C1316.8 31.2769 1316.61 31.3539 1316.39 31.3539ZM1317.01 32.1569V38.2179H1315.75V32.1569H1317.01ZM1318.24 35.1819C1318.24 34.5585 1318.36 34.0122 1318.61 33.5429C1318.87 33.0662 1319.22 32.6995 1319.67 32.4429C1320.11 32.1862 1320.63 32.0579 1321.21 32.0579C1321.94 32.0579 1322.54 32.2339 1323.02 32.5859C1323.5 32.9305 1323.83 33.4255 1324 34.0709H1322.65C1322.54 33.7702 1322.36 33.5355 1322.12 33.3669C1321.88 33.1982 1321.57 33.1139 1321.21 33.1139C1320.69 33.1139 1320.28 33.2972 1319.97 33.6639C1319.67 34.0232 1319.52 34.5292 1319.52 35.1819C1319.52 35.8345 1319.67 36.3442 1319.97 36.7109C1320.28 37.0775 1320.69 37.2609 1321.21 37.2609C1321.93 37.2609 1322.41 36.9419 1322.65 36.3039H1324C1323.82 36.9199 1323.49 37.4112 1323.01 37.7779C1322.53 38.1372 1321.92 38.3169 1321.21 38.3169C1320.63 38.3169 1320.11 38.1885 1319.67 37.9319C1319.22 37.6679 1318.87 37.3012 1318.61 36.8319C1318.36 36.3552 1318.24 35.8052 1318.24 35.1819ZM1327.65 35.1929L1330.44 38.2179H1328.75L1326.5 35.6109V38.2179H1325.25V30.0779H1326.5V34.8079L1328.7 32.1569H1330.44L1327.65 35.1929ZM1339.14 30.5729V31.5959H1337.1V38.2179H1335.85V31.5959H1333.8V30.5729H1339.14ZM1343.54 32.0579C1344 32.0579 1344.41 32.1569 1344.77 32.3549C1345.14 32.5529 1345.43 32.8462 1345.63 33.2349C1345.84 33.6235 1345.95 34.0929 1345.95 34.6429V38.2179H1344.71V34.8299C1344.71 34.2872 1344.57 33.8729 1344.3 33.5869C1344.03 33.2935 1343.66 33.1469 1343.19 33.1469C1342.72 33.1469 1342.35 33.2935 1342.07 33.5869C1341.8 33.8729 1341.66 34.2872 1341.66 34.8299V38.2179H1340.41V30.0779H1341.66V32.8609C1341.87 32.6042 1342.14 32.4062 1342.46 32.2669C1342.79 32.1275 1343.15 32.0579 1343.54 32.0579ZM1350.18 38.3169C1349.61 38.3169 1349.09 38.1885 1348.63 37.9319C1348.17 37.6679 1347.8 37.3012 1347.54 36.8319C1347.27 36.3552 1347.14 35.8052 1347.14 35.1819C1347.14 34.5659 1347.28 34.0195 1347.55 33.5429C1347.82 33.0662 1348.19 32.6995 1348.66 32.4429C1349.13 32.1862 1349.65 32.0579 1350.23 32.0579C1350.81 32.0579 1351.34 32.1862 1351.81 32.4429C1352.28 32.6995 1352.65 33.0662 1352.92 33.5429C1353.19 34.0195 1353.32 34.5659 1353.32 35.1819C1353.32 35.7979 1353.19 36.3442 1352.91 36.8209C1352.63 37.2975 1352.25 37.6679 1351.76 37.9319C1351.29 38.1885 1350.76 38.3169 1350.18 38.3169ZM1350.18 37.2279C1350.5 37.2279 1350.8 37.1509 1351.08 36.9969C1351.37 36.8429 1351.6 36.6119 1351.77 36.3039C1351.95 35.9959 1352.04 35.6219 1352.04 35.1819C1352.04 34.7419 1351.95 34.3715 1351.78 34.0709C1351.62 33.7629 1351.39 33.5319 1351.11 33.3779C1350.83 33.2239 1350.53 33.1469 1350.21 33.1469C1349.89 33.1469 1349.59 33.2239 1349.31 33.3779C1349.04 33.5319 1348.82 33.7629 1348.66 34.0709C1348.5 34.3715 1348.42 34.7419 1348.42 35.1819C1348.42 35.8345 1348.58 36.3405 1348.91 36.6999C1349.25 37.0519 1349.67 37.2279 1350.18 37.2279ZM1361.9 32.0579C1362.38 32.0579 1362.8 32.1569 1363.18 32.3549C1363.56 32.5529 1363.86 32.8462 1364.07 33.2349C1364.29 33.6235 1364.4 34.0929 1364.4 34.6429V38.2179H1363.16V34.8299C1363.16 34.2872 1363.02 33.8729 1362.75 33.5869C1362.48 33.2935 1362.11 33.1469 1361.64 33.1469C1361.17 33.1469 1360.79 33.2935 1360.52 33.5869C1360.24 33.8729 1360.11 34.2872 1360.11 34.8299V38.2179H1358.87V34.8299C1358.87 34.2872 1358.73 33.8729 1358.46 33.5869C1358.19 33.2935 1357.82 33.1469 1357.35 33.1469C1356.88 33.1469 1356.5 33.2935 1356.23 33.5869C1355.95 33.8729 1355.82 34.2872 1355.82 34.8299V38.2179H1354.56V32.1569H1355.82V32.8499C1356.02 32.6005 1356.28 32.4062 1356.6 32.2669C1356.91 32.1275 1357.25 32.0579 1357.61 32.0579C1358.1 32.0579 1358.53 32.1605 1358.91 32.3659C1359.29 32.5712 1359.58 32.8682 1359.79 33.2569C1359.97 32.8902 1360.26 32.6005 1360.65 32.3879C1361.04 32.1679 1361.45 32.0579 1361.9 32.0579ZM1365.58 35.1599C1365.58 34.5512 1365.7 34.0122 1365.95 33.5429C1366.21 33.0735 1366.55 32.7105 1366.98 32.4539C1367.42 32.1899 1367.91 32.0579 1368.44 32.0579C1368.91 32.0579 1369.33 32.1532 1369.68 32.3439C1370.04 32.5272 1370.32 32.7582 1370.54 33.0369V32.1569H1371.8V38.2179H1370.54V37.3159C1370.32 37.6019 1370.03 37.8402 1369.67 38.0309C1369.3 38.2215 1368.88 38.3169 1368.41 38.3169C1367.89 38.3169 1367.42 38.1849 1366.98 37.9209C1366.55 37.6495 1366.21 37.2755 1365.95 36.7989C1365.7 36.3149 1365.58 35.7685 1365.58 35.1599ZM1370.54 35.1819C1370.54 34.7639 1370.45 34.4009 1370.27 34.0929C1370.1 33.7849 1369.88 33.5502 1369.6 33.3889C1369.32 33.2275 1369.02 33.1469 1368.7 33.1469C1368.38 33.1469 1368.08 33.2275 1367.8 33.3889C1367.52 33.5429 1367.29 33.7739 1367.12 34.0819C1366.95 34.3825 1366.86 34.7419 1366.86 35.1599C1366.86 35.5779 1366.95 35.9445 1367.12 36.2599C1367.29 36.5752 1367.52 36.8172 1367.8 36.9859C1368.08 37.1472 1368.38 37.2279 1368.7 37.2279C1369.02 37.2279 1369.32 37.1472 1369.6 36.9859C1369.88 36.8245 1370.1 36.5899 1370.27 36.2819C1370.45 35.9665 1370.54 35.5999 1370.54 35.1819ZM1375.65 38.3169C1375.17 38.3169 1374.74 38.2325 1374.36 38.0639C1373.99 37.8879 1373.69 37.6532 1373.47 37.3599C1373.25 37.0592 1373.13 36.7255 1373.12 36.3589H1374.42C1374.44 36.6155 1374.56 36.8319 1374.78 37.0079C1375.01 37.1765 1375.29 37.2609 1375.63 37.2609C1375.98 37.2609 1376.25 37.1949 1376.44 37.0629C1376.64 36.9235 1376.74 36.7475 1376.74 36.5349C1376.74 36.3075 1376.63 36.1389 1376.41 36.0289C1376.2 35.9189 1375.85 35.7979 1375.39 35.6659C1374.93 35.5412 1374.56 35.4202 1374.27 35.3029C1373.99 35.1855 1373.74 35.0059 1373.53 34.7639C1373.32 34.5219 1373.22 34.2029 1373.22 33.8069C1373.22 33.4842 1373.31 33.1909 1373.5 32.9269C1373.69 32.6555 1373.97 32.4429 1374.32 32.2889C1374.68 32.1349 1375.09 32.0579 1375.55 32.0579C1376.24 32.0579 1376.79 32.2339 1377.21 32.5859C1377.64 32.9305 1377.86 33.4035 1377.89 34.0049H1376.64C1376.62 33.7335 1376.51 33.5172 1376.31 33.3559C1376.11 33.1945 1375.84 33.1139 1375.51 33.1139C1375.18 33.1139 1374.92 33.1762 1374.75 33.3009C1374.57 33.4255 1374.48 33.5905 1374.48 33.7959C1374.48 33.9572 1374.54 34.0929 1374.66 34.2029C1374.78 34.3129 1374.92 34.4009 1375.09 34.4669C1375.26 34.5255 1375.51 34.6025 1375.84 34.6979C1376.28 34.8152 1376.64 34.9362 1376.91 35.0609C1377.2 35.1782 1377.45 35.3542 1377.65 35.5889C1377.86 35.8235 1377.96 36.1352 1377.97 36.5239C1377.97 36.8685 1377.87 37.1765 1377.68 37.4479C1377.49 37.7192 1377.22 37.9319 1376.87 38.0859C1376.53 38.2399 1376.12 38.3169 1375.65 38.3169Z" fill="#959CB6"/>
<rect x="1408.49" y="16.8467" width="43.368" height="42.1167" rx="4" fill="#D7F9EF"/>
<path d="M1434.78 40.66H1433.23L1427.01 31.225V40.66H1425.46V28.794H1427.01L1433.23 38.212V28.794H1434.78V40.66Z" fill="#0BB783"/>
</g>
<defs>
<clipPath id="clip0_200_2919">
<rect width="1487.76" height="78.2167" fill="white" transform="translate(0.236572)"/>
</clipPath>
</defs>
</svg>
