<svg width="31" height="31" viewBox="0 0 31 31" fill="none" xmlns="http://www.w3.org/2000/svg">
<path d="M14.3068 20.6777C14.855 21.1163 15.6339 21.116 16.1818 20.6771L24.4118 14.0836L24.9856 13.6264C25.7381 13.0267 25.7394 11.8835 24.9881 11.2822L16.1819 4.23389C15.6339 3.79534 14.8552 3.79533 14.3072 4.23389L5.49655 11.2858C4.74672 11.8859 4.74623 13.0264 5.49555 13.6271L6.0649 14.0836L14.3068 20.6777Z" fill="#6993FF"/>
<path opacity="0.3" fill-rule="evenodd" clip-rule="evenodd" d="M16.1693 23.9335C15.6215 24.372 14.8429 24.3721 14.2949 23.9337L6.95412 18.0606C6.45898 17.6644 5.73512 17.7517 5.34841 18.2543C4.96684 18.7501 5.05944 19.4614 5.55525 19.8431L14.3279 26.5955C14.8671 27.0106 15.6182 27.0107 16.1575 26.5957L24.9262 19.8489C25.4262 19.4642 25.5193 18.7468 25.1341 18.2471C24.7442 17.7414 24.0153 17.6538 23.5167 18.0529L16.1693 23.9335Z" fill="#6993FF"/>
</svg>
