<svg width="30" height="30" viewBox="0 0 30 30" fill="none" xmlns="http://www.w3.org/2000/svg">
<rect x="5.4292" y="5.67666" width="8.43267" height="8.42333" rx="1.5" fill="#6993FF"/>
<path opacity="0.3" fill-rule="evenodd" clip-rule="evenodd" d="M16.2712 7.17666C16.2712 6.34823 16.9428 5.67666 17.7712 5.67666H23.2039C24.0323 5.67666 24.7039 6.34823 24.7039 7.17666V12.6C24.7039 13.4284 24.0323 14.1 23.2039 14.1H17.7712C16.9428 14.1 16.2712 13.4284 16.2712 12.6V7.17666ZM5.4292 18.0067C5.4292 17.1782 6.10077 16.5067 6.9292 16.5067H12.3619C13.1903 16.5067 13.8619 17.1782 13.8619 18.0067V23.43C13.8619 24.2584 13.1903 24.93 12.3619 24.93H6.9292C6.10077 24.93 5.4292 24.2584 5.4292 23.43V18.0067ZM17.7712 16.5067C16.9428 16.5067 16.2712 17.1782 16.2712 18.0067V23.43C16.2712 24.2584 16.9428 24.93 17.7712 24.93H23.2039C24.0323 24.93 24.7039 24.2584 24.7039 23.43V18.0067C24.7039 17.1782 24.0323 16.5067 23.2039 16.5067H17.7712Z" fill="#6993FF"/>
</svg>
