<svg width="30" height="30" viewBox="0 0 30 30" fill="none" xmlns="http://www.w3.org/2000/svg">
<rect x="5.1167" y="5.71666" width="8.43267" height="8.42333" rx="1.5" fill="#6993FF"/>
<path opacity="0.3" fill-rule="evenodd" clip-rule="evenodd" d="M15.9587 7.21666C15.9587 6.38823 16.6303 5.71666 17.4587 5.71666H22.8914C23.7198 5.71666 24.3914 6.38823 24.3914 7.21666V12.64C24.3914 13.4684 23.7198 14.14 22.8914 14.14H17.4587C16.6303 14.14 15.9587 13.4684 15.9587 12.64V7.21666ZM5.1167 18.0467C5.1167 17.2182 5.78827 16.5467 6.6167 16.5467H12.0494C12.8778 16.5467 13.5494 17.2182 13.5494 18.0467V23.47C13.5494 24.2984 12.8778 24.97 12.0494 24.97H6.6167C5.78827 24.97 5.1167 24.2984 5.1167 23.47V18.0467ZM17.4587 16.5467C16.6303 16.5467 15.9587 17.2182 15.9587 18.0467V23.47C15.9587 24.2984 16.6303 24.97 17.4587 24.97H22.8914C23.7198 24.97 24.3914 24.2984 24.3914 23.47V18.0467C24.3914 17.2182 23.7198 16.5467 22.8914 16.5467H17.4587Z" fill="#6993FF"/>
</svg>
