<svg width="30" height="30" viewBox="0 0 30 30" fill="none" xmlns="http://www.w3.org/2000/svg">
<path opacity="0.3" d="M17.8074 20.9675C17.337 20.4976 17.337 19.7357 17.8074 19.2658C18.2779 18.7958 19.0406 18.7958 19.5111 19.2658L24.3298 24.0791C24.8002 24.549 24.8002 25.311 24.3298 25.7809C23.8593 26.2508 23.0965 26.2508 22.6261 25.7809L17.8074 20.9675Z" fill="#6993FF"/>
<path fill-rule="evenodd" clip-rule="evenodd" d="M5.40771 14.1C5.40771 18.7521 9.18315 22.5233 13.8404 22.5233C18.4976 22.5233 22.273 18.7521 22.273 14.1C22.273 9.44791 18.4976 5.67666 13.8404 5.67666C9.18315 5.67666 5.40771 9.44791 5.40771 14.1ZM19.8637 14.1C19.8637 17.4229 17.167 20.1167 13.8404 20.1167C10.5138 20.1167 7.81705 17.4229 7.81705 14.1C7.81705 10.7771 10.5138 8.08333 13.8404 8.08333C17.167 8.08333 19.8637 10.7771 19.8637 14.1Z" fill="#6993FF"/>
</svg>
