<svg width="1319" height="472" viewBox="0 0 1319 472" fill="none" xmlns="http://www.w3.org/2000/svg">
<rect width="1319" height="472" rx="12" fill="white"/>
<line x1="142.204" y1="113.5" x2="1228.03" y2="113.5" stroke="#EAEAEA" stroke-dasharray="3 4"/>
<line x1="142.204" y1="173.5" x2="1228.03" y2="173.5" stroke="#EAEAEA" stroke-dasharray="3 4"/>
<line x1="142.204" y1="233.5" x2="1228.03" y2="233.5" stroke="#EAEAEA" stroke-dasharray="3 4"/>
<line x1="142.204" y1="293.5" x2="1228.03" y2="293.5" stroke="#EAEAEA" stroke-dasharray="3 4"/>
<line x1="142.204" y1="353.5" x2="1228.03" y2="353.5" stroke="#EAEAEA" stroke-dasharray="3 4"/>
<line x1="142.204" y1="413.5" x2="1228.03" y2="413.5" stroke="#EAEAEA" stroke-dasharray="3 4"/>
<path d="M239.441 431.5V430.252H241.937V439H240.557V431.5H239.441ZM252.141 437.296H248.649L248.049 439H246.621L249.609 430.648H251.193L254.181 439H252.741L252.141 437.296ZM251.757 436.18L250.401 432.304L249.033 436.18H251.757ZM261.468 432.388V439H260.1V438.22C259.884 438.492 259.6 438.708 259.248 438.868C258.904 439.02 258.536 439.096 258.144 439.096C257.624 439.096 257.156 438.988 256.74 438.772C256.332 438.556 256.008 438.236 255.768 437.812C255.536 437.388 255.42 436.876 255.42 436.276V432.388H256.776V436.072C256.776 436.664 256.924 437.12 257.22 437.44C257.516 437.752 257.92 437.908 258.432 437.908C258.944 437.908 259.348 437.752 259.644 437.44C259.948 437.12 260.1 436.664 260.1 436.072V432.388H261.468ZM265.937 432.28C266.449 432.28 266.901 432.384 267.293 432.592C267.693 432.792 268.005 433.044 268.229 433.348V432.388H269.609V439.108C269.609 439.716 269.481 440.256 269.225 440.728C268.969 441.208 268.597 441.584 268.109 441.856C267.629 442.128 267.053 442.264 266.381 442.264C265.485 442.264 264.741 442.052 264.149 441.628C263.557 441.212 263.221 440.644 263.141 439.924H264.497C264.601 440.268 264.821 440.544 265.157 440.752C265.501 440.968 265.909 441.076 266.381 441.076C266.933 441.076 267.377 440.908 267.713 440.572C268.057 440.236 268.229 439.748 268.229 439.108V438.004C267.997 438.316 267.681 438.58 267.281 438.796C266.889 439.004 266.441 439.108 265.937 439.108C265.361 439.108 264.833 438.964 264.353 438.676C263.881 438.38 263.505 437.972 263.225 437.452C262.953 436.924 262.817 436.328 262.817 435.664C262.817 435 262.953 434.412 263.225 433.9C263.505 433.388 263.881 432.992 264.353 432.712C264.833 432.424 265.361 432.28 265.937 432.28ZM268.229 435.688C268.229 435.232 268.133 434.836 267.941 434.5C267.757 434.164 267.513 433.908 267.209 433.732C266.905 433.556 266.577 433.468 266.225 433.468C265.873 433.468 265.545 433.556 265.241 433.732C264.937 433.9 264.689 434.152 264.497 434.488C264.313 434.816 264.221 435.208 264.221 435.664C264.221 436.12 264.313 436.52 264.497 436.864C264.689 437.208 264.937 437.472 265.241 437.656C265.553 437.832 265.881 437.92 266.225 437.92C266.577 437.92 266.905 437.832 267.209 437.656C267.513 437.48 267.757 437.224 267.941 436.888C268.133 436.544 268.229 436.144 268.229 435.688Z" fill="#B5B5C3"/>
<path d="M416.751 434.428C415.919 434.012 415.503 433.356 415.503 432.46C415.503 432.028 415.611 431.632 415.827 431.272C416.043 430.912 416.367 430.628 416.799 430.42C417.231 430.204 417.759 430.096 418.383 430.096C418.999 430.096 419.523 430.204 419.955 430.42C420.395 430.628 420.723 430.912 420.939 431.272C421.155 431.632 421.263 432.028 421.263 432.46C421.263 432.908 421.147 433.304 420.915 433.648C420.691 433.984 420.391 434.244 420.015 434.428C420.471 434.596 420.831 434.872 421.095 435.256C421.359 435.632 421.491 436.076 421.491 436.588C421.491 437.108 421.359 437.568 421.095 437.968C420.831 438.368 420.463 438.676 419.991 438.892C419.519 439.108 418.983 439.216 418.383 439.216C417.783 439.216 417.247 439.108 416.775 438.892C416.311 438.676 415.947 438.368 415.683 437.968C415.419 437.568 415.287 437.108 415.287 436.588C415.287 436.068 415.419 435.62 415.683 435.244C415.947 434.868 416.303 434.596 416.751 434.428ZM419.955 432.628C419.955 432.18 419.815 431.836 419.535 431.596C419.255 431.356 418.871 431.236 418.383 431.236C417.903 431.236 417.523 431.356 417.243 431.596C416.963 431.836 416.823 432.184 416.823 432.64C416.823 433.04 416.967 433.368 417.255 433.624C417.551 433.872 417.927 433.996 418.383 433.996C418.839 433.996 419.215 433.868 419.511 433.612C419.807 433.356 419.955 433.028 419.955 432.628ZM418.383 435.028C417.855 435.028 417.423 435.16 417.087 435.424C416.759 435.68 416.595 436.052 416.595 436.54C416.595 436.996 416.755 437.368 417.075 437.656C417.395 437.936 417.831 438.076 418.383 438.076C418.927 438.076 419.355 437.932 419.667 437.644C419.987 437.356 420.147 436.988 420.147 436.54C420.147 436.06 419.983 435.688 419.655 435.424C419.335 435.16 418.911 435.028 418.383 435.028ZM431.252 437.296H427.76L427.16 439H425.732L428.72 430.648H430.304L433.292 439H431.852L431.252 437.296ZM430.868 436.18L429.512 432.304L428.144 436.18H430.868ZM440.58 432.388V439H439.212V438.22C438.996 438.492 438.712 438.708 438.36 438.868C438.016 439.02 437.648 439.096 437.256 439.096C436.736 439.096 436.268 438.988 435.852 438.772C435.444 438.556 435.12 438.236 434.88 437.812C434.648 437.388 434.532 436.876 434.532 436.276V432.388H435.888V436.072C435.888 436.664 436.036 437.12 436.332 437.44C436.628 437.752 437.032 437.908 437.544 437.908C438.056 437.908 438.46 437.752 438.756 437.44C439.06 437.12 439.212 436.664 439.212 436.072V432.388H440.58ZM445.049 432.28C445.561 432.28 446.013 432.384 446.405 432.592C446.805 432.792 447.117 433.044 447.341 433.348V432.388H448.721V439.108C448.721 439.716 448.593 440.256 448.337 440.728C448.081 441.208 447.709 441.584 447.221 441.856C446.741 442.128 446.165 442.264 445.493 442.264C444.597 442.264 443.853 442.052 443.261 441.628C442.669 441.212 442.333 440.644 442.253 439.924H443.609C443.713 440.268 443.933 440.544 444.269 440.752C444.613 440.968 445.021 441.076 445.493 441.076C446.045 441.076 446.489 440.908 446.825 440.572C447.169 440.236 447.341 439.748 447.341 439.108V438.004C447.109 438.316 446.793 438.58 446.393 438.796C446.001 439.004 445.553 439.108 445.049 439.108C444.473 439.108 443.945 438.964 443.465 438.676C442.993 438.38 442.617 437.972 442.337 437.452C442.065 436.924 441.929 436.328 441.929 435.664C441.929 435 442.065 434.412 442.337 433.9C442.617 433.388 442.993 432.992 443.465 432.712C443.945 432.424 444.473 432.28 445.049 432.28ZM447.341 435.688C447.341 435.232 447.245 434.836 447.053 434.5C446.869 434.164 446.625 433.908 446.321 433.732C446.017 433.556 445.689 433.468 445.337 433.468C444.985 433.468 444.657 433.556 444.353 433.732C444.049 433.9 443.801 434.152 443.609 434.488C443.425 434.816 443.333 435.208 443.333 435.664C443.333 436.12 443.425 436.52 443.609 436.864C443.801 437.208 444.049 437.472 444.353 437.656C444.665 437.832 444.993 437.92 445.337 437.92C445.689 437.92 446.017 437.832 446.321 437.656C446.625 437.48 446.869 437.224 447.053 436.888C447.245 436.544 447.341 436.144 447.341 435.688Z" fill="#B5B5C3"/>
<path d="M588.276 431.5V430.252H590.772V439H589.392V431.5H588.276ZM598.292 431.428H594.272V433.816C594.44 433.592 594.688 433.404 595.016 433.252C595.352 433.1 595.708 433.024 596.084 433.024C596.756 433.024 597.3 433.168 597.716 433.456C598.14 433.744 598.44 434.108 598.616 434.548C598.8 434.988 598.892 435.452 598.892 435.94C598.892 436.532 598.776 437.06 598.544 437.524C598.32 437.98 597.98 438.34 597.524 438.604C597.076 438.868 596.524 439 595.868 439C594.996 439 594.296 438.784 593.768 438.352C593.24 437.92 592.924 437.348 592.82 436.636H594.152C594.24 437.012 594.436 437.312 594.74 437.536C595.044 437.752 595.424 437.86 595.88 437.86C596.448 437.86 596.872 437.688 597.152 437.344C597.44 437 597.584 436.544 597.584 435.976C597.584 435.4 597.44 434.96 597.152 434.656C596.864 434.344 596.44 434.188 595.88 434.188C595.488 434.188 595.156 434.288 594.884 434.488C594.62 434.68 594.428 434.944 594.308 435.28H593.012V430.228H598.292V431.428ZM600.136 431.5V430.252H602.632V439H601.252V431.5H600.136ZM612.836 437.296H609.344L608.744 439H607.316L610.304 430.648H611.888L614.876 439H613.436L612.836 437.296ZM612.452 436.18L611.096 432.304L609.728 436.18H612.452ZM622.163 432.388V439H620.795V438.22C620.579 438.492 620.295 438.708 619.943 438.868C619.599 439.02 619.231 439.096 618.839 439.096C618.319 439.096 617.851 438.988 617.435 438.772C617.027 438.556 616.703 438.236 616.463 437.812C616.231 437.388 616.115 436.876 616.115 436.276V432.388H617.471V436.072C617.471 436.664 617.619 437.12 617.915 437.44C618.211 437.752 618.615 437.908 619.127 437.908C619.639 437.908 620.043 437.752 620.339 437.44C620.643 437.12 620.795 436.664 620.795 436.072V432.388H622.163ZM626.632 432.28C627.144 432.28 627.596 432.384 627.988 432.592C628.388 432.792 628.7 433.044 628.924 433.348V432.388H630.304V439.108C630.304 439.716 630.176 440.256 629.92 440.728C629.664 441.208 629.292 441.584 628.804 441.856C628.324 442.128 627.748 442.264 627.076 442.264C626.18 442.264 625.436 442.052 624.844 441.628C624.252 441.212 623.916 440.644 623.836 439.924H625.192C625.296 440.268 625.516 440.544 625.852 440.752C626.196 440.968 626.604 441.076 627.076 441.076C627.628 441.076 628.072 440.908 628.408 440.572C628.752 440.236 628.924 439.748 628.924 439.108V438.004C628.692 438.316 628.376 438.58 627.976 438.796C627.584 439.004 627.136 439.108 626.632 439.108C626.056 439.108 625.528 438.964 625.048 438.676C624.576 438.38 624.2 437.972 623.92 437.452C623.648 436.924 623.512 436.328 623.512 435.664C623.512 435 623.648 434.412 623.92 433.9C624.2 433.388 624.576 432.992 625.048 432.712C625.528 432.424 626.056 432.28 626.632 432.28ZM628.924 435.688C628.924 435.232 628.828 434.836 628.636 434.5C628.452 434.164 628.208 433.908 627.904 433.732C627.6 433.556 627.272 433.468 626.92 433.468C626.568 433.468 626.24 433.556 625.936 433.732C625.632 433.9 625.384 434.152 625.192 434.488C625.008 434.816 624.916 435.208 624.916 435.664C624.916 436.12 625.008 436.52 625.192 436.864C625.384 437.208 625.632 437.472 625.936 437.656C626.248 437.832 626.576 437.92 626.92 437.92C627.272 437.92 627.6 437.832 627.904 437.656C628.208 437.48 628.452 437.224 628.636 436.888C628.828 436.544 628.924 436.144 628.924 435.688Z" fill="#B5B5C3"/>
<path d="M767.697 437.14C768.465 436.476 769.069 435.932 769.509 435.508C769.957 435.076 770.329 434.628 770.625 434.164C770.921 433.7 771.069 433.236 771.069 432.772C771.069 432.292 770.953 431.916 770.721 431.644C770.497 431.372 770.141 431.236 769.653 431.236C769.181 431.236 768.813 431.388 768.549 431.692C768.293 431.988 768.157 432.388 768.141 432.892H766.821C766.845 431.98 767.117 431.284 767.637 430.804C768.165 430.316 768.833 430.072 769.641 430.072C770.513 430.072 771.193 430.312 771.681 430.792C772.177 431.272 772.425 431.912 772.425 432.712C772.425 433.288 772.277 433.844 771.981 434.38C771.693 434.908 771.345 435.384 770.937 435.808C770.537 436.224 770.025 436.708 769.401 437.26L768.861 437.74H772.665V438.88H766.833V437.884L767.697 437.14ZM774.623 437.14C775.391 436.476 775.995 435.932 776.435 435.508C776.883 435.076 777.255 434.628 777.551 434.164C777.847 433.7 777.995 433.236 777.995 432.772C777.995 432.292 777.879 431.916 777.647 431.644C777.423 431.372 777.067 431.236 776.579 431.236C776.107 431.236 775.739 431.388 775.475 431.692C775.219 431.988 775.083 432.388 775.067 432.892H773.747C773.771 431.98 774.043 431.284 774.563 430.804C775.091 430.316 775.759 430.072 776.567 430.072C777.439 430.072 778.119 430.312 778.607 430.792C779.103 431.272 779.351 431.912 779.351 432.712C779.351 433.288 779.203 433.844 778.907 434.38C778.619 434.908 778.271 435.384 777.863 435.808C777.463 436.224 776.951 436.708 776.327 437.26L775.787 437.74H779.591V438.88H773.759V437.884L774.623 437.14ZM789.118 437.296H785.626L785.026 439H783.598L786.586 430.648H788.17L791.158 439H789.718L789.118 437.296ZM788.734 436.18L787.378 432.304L786.01 436.18H788.734ZM798.445 432.388V439H797.077V438.22C796.861 438.492 796.577 438.708 796.225 438.868C795.881 439.02 795.513 439.096 795.121 439.096C794.601 439.096 794.133 438.988 793.717 438.772C793.309 438.556 792.985 438.236 792.745 437.812C792.513 437.388 792.397 436.876 792.397 436.276V432.388H793.753V436.072C793.753 436.664 793.901 437.12 794.197 437.44C794.493 437.752 794.897 437.908 795.409 437.908C795.921 437.908 796.325 437.752 796.621 437.44C796.925 437.12 797.077 436.664 797.077 436.072V432.388H798.445ZM802.914 432.28C803.426 432.28 803.878 432.384 804.27 432.592C804.67 432.792 804.982 433.044 805.206 433.348V432.388H806.586V439.108C806.586 439.716 806.458 440.256 806.202 440.728C805.946 441.208 805.574 441.584 805.086 441.856C804.606 442.128 804.03 442.264 803.358 442.264C802.462 442.264 801.718 442.052 801.126 441.628C800.534 441.212 800.198 440.644 800.118 439.924H801.474C801.578 440.268 801.798 440.544 802.134 440.752C802.478 440.968 802.886 441.076 803.358 441.076C803.91 441.076 804.354 440.908 804.69 440.572C805.034 440.236 805.206 439.748 805.206 439.108V438.004C804.974 438.316 804.658 438.58 804.258 438.796C803.866 439.004 803.418 439.108 802.914 439.108C802.338 439.108 801.81 438.964 801.33 438.676C800.858 438.38 800.482 437.972 800.202 437.452C799.93 436.924 799.794 436.328 799.794 435.664C799.794 435 799.93 434.412 800.202 433.9C800.482 433.388 800.858 432.992 801.33 432.712C801.81 432.424 802.338 432.28 802.914 432.28ZM805.206 435.688C805.206 435.232 805.11 434.836 804.918 434.5C804.734 434.164 804.49 433.908 804.186 433.732C803.882 433.556 803.554 433.468 803.202 433.468C802.85 433.468 802.522 433.556 802.218 433.732C801.914 433.9 801.666 434.152 801.474 434.488C801.29 434.816 801.198 435.208 801.198 435.664C801.198 436.12 801.29 436.52 801.474 436.864C801.666 437.208 801.914 437.472 802.218 437.656C802.53 437.832 802.858 437.92 803.202 437.92C803.554 437.92 803.882 437.832 804.186 437.656C804.49 437.48 804.734 437.224 804.918 436.888C805.11 436.544 805.206 436.144 805.206 435.688Z" fill="#B5B5C3"/>
<path d="M944.734 437.14C945.502 436.476 946.106 435.932 946.546 435.508C946.994 435.076 947.366 434.628 947.662 434.164C947.958 433.7 948.106 433.236 948.106 432.772C948.106 432.292 947.99 431.916 947.758 431.644C947.534 431.372 947.178 431.236 946.69 431.236C946.218 431.236 945.85 431.388 945.586 431.692C945.33 431.988 945.194 432.388 945.178 432.892H943.858C943.882 431.98 944.154 431.284 944.674 430.804C945.202 430.316 945.87 430.072 946.678 430.072C947.55 430.072 948.23 430.312 948.718 430.792C949.214 431.272 949.462 431.912 949.462 432.712C949.462 433.288 949.314 433.844 949.018 434.38C948.73 434.908 948.382 435.384 947.974 435.808C947.574 436.224 947.062 436.708 946.438 437.26L945.898 437.74H949.702V438.88H943.87V437.884L944.734 437.14ZM952.608 436.624C952.688 437.024 952.86 437.328 953.124 437.536C953.388 437.744 953.744 437.848 954.192 437.848C954.76 437.848 955.176 437.624 955.44 437.176C955.704 436.728 955.836 435.964 955.836 434.884C955.644 435.156 955.372 435.368 955.02 435.52C954.676 435.664 954.3 435.736 953.892 435.736C953.372 435.736 952.9 435.632 952.476 435.424C952.052 435.208 951.716 434.892 951.468 434.476C951.228 434.052 951.108 433.54 951.108 432.94C951.108 432.06 951.364 431.36 951.876 430.84C952.396 430.312 953.108 430.048 954.012 430.048C955.1 430.048 955.872 430.412 956.328 431.14C956.792 431.86 957.024 432.968 957.024 434.464C957.024 435.496 956.936 436.34 956.76 436.996C956.592 437.652 956.296 438.148 955.872 438.484C955.448 438.82 954.86 438.988 954.108 438.988C953.252 438.988 952.592 438.764 952.128 438.316C951.664 437.868 951.404 437.304 951.348 436.624H952.608ZM954.132 434.584C954.612 434.584 954.988 434.436 955.26 434.14C955.54 433.836 955.68 433.436 955.68 432.94C955.68 432.388 955.532 431.96 955.236 431.656C954.948 431.344 954.552 431.188 954.048 431.188C953.544 431.188 953.144 431.348 952.848 431.668C952.56 431.98 952.416 432.392 952.416 432.904C952.416 433.392 952.556 433.796 952.836 434.116C953.124 434.428 953.556 434.584 954.132 434.584ZM966.846 437.296H963.354L962.754 439H961.326L964.314 430.648H965.898L968.886 439H967.446L966.846 437.296ZM966.462 436.18L965.106 432.304L963.738 436.18H966.462ZM976.173 432.388V439H974.805V438.22C974.589 438.492 974.305 438.708 973.953 438.868C973.609 439.02 973.241 439.096 972.849 439.096C972.329 439.096 971.861 438.988 971.445 438.772C971.037 438.556 970.713 438.236 970.473 437.812C970.241 437.388 970.125 436.876 970.125 436.276V432.388H971.481V436.072C971.481 436.664 971.629 437.12 971.925 437.44C972.221 437.752 972.625 437.908 973.137 437.908C973.649 437.908 974.053 437.752 974.349 437.44C974.653 437.12 974.805 436.664 974.805 436.072V432.388H976.173ZM980.642 432.28C981.154 432.28 981.606 432.384 981.998 432.592C982.398 432.792 982.71 433.044 982.934 433.348V432.388H984.314V439.108C984.314 439.716 984.186 440.256 983.93 440.728C983.674 441.208 983.302 441.584 982.814 441.856C982.334 442.128 981.758 442.264 981.086 442.264C980.19 442.264 979.446 442.052 978.854 441.628C978.262 441.212 977.926 440.644 977.846 439.924H979.202C979.306 440.268 979.526 440.544 979.862 440.752C980.206 440.968 980.614 441.076 981.086 441.076C981.638 441.076 982.082 440.908 982.418 440.572C982.762 440.236 982.934 439.748 982.934 439.108V438.004C982.702 438.316 982.386 438.58 981.986 438.796C981.594 439.004 981.146 439.108 980.642 439.108C980.066 439.108 979.538 438.964 979.058 438.676C978.586 438.38 978.21 437.972 977.93 437.452C977.658 436.924 977.522 436.328 977.522 435.664C977.522 435 977.658 434.412 977.93 433.9C978.21 433.388 978.586 432.992 979.058 432.712C979.538 432.424 980.066 432.28 980.642 432.28ZM982.934 435.688C982.934 435.232 982.838 434.836 982.646 434.5C982.462 434.164 982.218 433.908 981.914 433.732C981.61 433.556 981.282 433.468 980.93 433.468C980.578 433.468 980.25 433.556 979.946 433.732C979.642 433.9 979.394 434.152 979.202 434.488C979.018 434.816 978.926 435.208 978.926 435.664C978.926 436.12 979.018 436.52 979.202 436.864C979.394 437.208 979.642 437.472 979.946 437.656C980.258 437.832 980.586 437.92 980.93 437.92C981.282 437.92 981.61 437.832 981.914 437.656C982.218 437.48 982.462 437.224 982.646 436.888C982.838 436.544 982.934 436.144 982.934 435.688Z" fill="#B5B5C3"/>
<path d="M1128.92 431.428H1124.9V433.816C1125.07 433.592 1125.32 433.404 1125.65 433.252C1125.98 433.1 1126.34 433.024 1126.71 433.024C1127.39 433.024 1127.93 433.168 1128.35 433.456C1128.77 433.744 1129.07 434.108 1129.25 434.548C1129.43 434.988 1129.52 435.452 1129.52 435.94C1129.52 436.532 1129.41 437.06 1129.17 437.524C1128.95 437.98 1128.61 438.34 1128.15 438.604C1127.71 438.868 1127.15 439 1126.5 439C1125.63 439 1124.93 438.784 1124.4 438.352C1123.87 437.92 1123.55 437.348 1123.45 436.636H1124.78C1124.87 437.012 1125.07 437.312 1125.37 437.536C1125.67 437.752 1126.05 437.86 1126.51 437.86C1127.08 437.86 1127.5 437.688 1127.78 437.344C1128.07 437 1128.21 436.544 1128.21 435.976C1128.21 435.4 1128.07 434.96 1127.78 434.656C1127.49 434.344 1127.07 434.188 1126.51 434.188C1126.12 434.188 1125.79 434.288 1125.51 434.488C1125.25 434.68 1125.06 434.944 1124.94 435.28H1123.64V430.228H1128.92V431.428ZM1136.99 439.084C1136.43 439.084 1135.93 438.988 1135.48 438.796C1135.03 438.596 1134.68 438.316 1134.42 437.956C1134.17 437.596 1134.04 437.176 1134.04 436.696H1135.5C1135.53 437.056 1135.67 437.352 1135.92 437.584C1136.18 437.816 1136.53 437.932 1136.99 437.932C1137.46 437.932 1137.83 437.82 1138.09 437.596C1138.36 437.364 1138.49 437.068 1138.49 436.708C1138.49 436.428 1138.41 436.2 1138.24 436.024C1138.08 435.848 1137.87 435.712 1137.63 435.616C1137.39 435.52 1137.05 435.416 1136.62 435.304C1136.07 435.16 1135.63 435.016 1135.29 434.872C1134.95 434.72 1134.66 434.488 1134.42 434.176C1134.18 433.864 1134.06 433.448 1134.06 432.928C1134.06 432.448 1134.18 432.028 1134.42 431.668C1134.66 431.308 1135 431.032 1135.43 430.84C1135.86 430.648 1136.36 430.552 1136.93 430.552C1137.74 430.552 1138.4 430.756 1138.91 431.164C1139.43 431.564 1139.72 432.116 1139.77 432.82H1138.26C1138.24 432.516 1138.09 432.256 1137.83 432.04C1137.57 431.824 1137.22 431.716 1136.79 431.716C1136.39 431.716 1136.07 431.816 1135.83 432.016C1135.58 432.216 1135.45 432.504 1135.45 432.88C1135.45 433.136 1135.53 433.348 1135.68 433.516C1135.84 433.676 1136.04 433.804 1136.28 433.9C1136.52 433.996 1136.85 434.1 1137.27 434.212C1137.82 434.364 1138.27 434.516 1138.61 434.668C1138.96 434.82 1139.26 435.056 1139.5 435.376C1139.75 435.688 1139.87 436.108 1139.87 436.636C1139.87 437.06 1139.75 437.46 1139.52 437.836C1139.3 438.212 1138.97 438.516 1138.53 438.748C1138.09 438.972 1137.58 439.084 1136.99 439.084ZM1147.55 435.532C1147.55 435.78 1147.53 436.004 1147.5 436.204H1142.45C1142.49 436.732 1142.68 437.156 1143.03 437.476C1143.39 437.796 1143.82 437.956 1144.33 437.956C1145.07 437.956 1145.59 437.648 1145.89 437.032H1147.37C1147.17 437.64 1146.8 438.14 1146.27 438.532C1145.75 438.916 1145.11 439.108 1144.33 439.108C1143.7 439.108 1143.13 438.968 1142.63 438.688C1142.13 438.4 1141.74 438 1141.45 437.488C1141.17 436.968 1141.03 436.368 1141.03 435.688C1141.03 435.008 1141.17 434.412 1141.44 433.9C1141.72 433.38 1142.11 432.98 1142.6 432.7C1143.11 432.42 1143.68 432.28 1144.33 432.28C1144.95 432.28 1145.51 432.416 1146 432.688C1146.49 432.96 1146.87 433.344 1147.14 433.84C1147.41 434.328 1147.55 434.892 1147.55 435.532ZM1146.12 435.1C1146.11 434.596 1145.93 434.192 1145.58 433.888C1145.23 433.584 1144.79 433.432 1144.27 433.432C1143.8 433.432 1143.39 433.584 1143.06 433.888C1142.72 434.184 1142.52 434.588 1142.46 435.1H1146.12ZM1150.26 433.36C1150.49 433.056 1150.81 432.8 1151.21 432.592C1151.61 432.384 1152.06 432.28 1152.56 432.28C1153.14 432.28 1153.66 432.424 1154.14 432.712C1154.62 432.992 1154.99 433.388 1155.26 433.9C1155.54 434.412 1155.67 435 1155.67 435.664C1155.67 436.328 1155.54 436.924 1155.26 437.452C1154.99 437.972 1154.62 438.38 1154.14 438.676C1153.66 438.964 1153.14 439.108 1152.56 439.108C1152.06 439.108 1151.61 439.008 1151.22 438.808C1150.83 438.6 1150.51 438.344 1150.26 438.04V442.144H1148.89V432.388H1150.26V433.36ZM1154.28 435.664C1154.28 435.208 1154.18 434.816 1153.99 434.488C1153.81 434.152 1153.56 433.9 1153.25 433.732C1152.94 433.556 1152.62 433.468 1152.26 433.468C1151.92 433.468 1151.59 433.556 1151.28 433.732C1150.98 433.908 1150.73 434.164 1150.54 434.5C1150.35 434.836 1150.26 435.232 1150.26 435.688C1150.26 436.144 1150.35 436.544 1150.54 436.888C1150.73 437.224 1150.98 437.48 1151.28 437.656C1151.59 437.832 1151.92 437.92 1152.26 437.92C1152.62 437.92 1152.94 437.832 1153.25 437.656C1153.56 437.472 1153.81 437.208 1153.99 436.864C1154.18 436.52 1154.28 436.12 1154.28 435.664Z" fill="#B5B5C3"/>
<path d="M68.7641 110.5V109.252H71.2601V118H69.8801V110.5H68.7641ZM78.7794 110.428H74.7594V112.816C74.9274 112.592 75.1754 112.404 75.5034 112.252C75.8394 112.1 76.1954 112.024 76.5714 112.024C77.2434 112.024 77.7874 112.168 78.2034 112.456C78.6274 112.744 78.9274 113.108 79.1034 113.548C79.2874 113.988 79.3794 114.452 79.3794 114.94C79.3794 115.532 79.2634 116.06 79.0314 116.524C78.8074 116.98 78.4674 117.34 78.0114 117.604C77.5634 117.868 77.0114 118 76.3554 118C75.4834 118 74.7834 117.784 74.2554 117.352C73.7274 116.92 73.4114 116.348 73.3074 115.636H74.6394C74.7274 116.012 74.9234 116.312 75.2274 116.536C75.5314 116.752 75.9114 116.86 76.3674 116.86C76.9354 116.86 77.3594 116.688 77.6394 116.344C77.9274 116 78.0714 115.544 78.0714 114.976C78.0714 114.4 77.9274 113.96 77.6394 113.656C77.3514 113.344 76.9274 113.188 76.3674 113.188C75.9754 113.188 75.6434 113.288 75.3714 113.488C75.1074 113.68 74.9154 113.944 74.7954 114.28H73.4994V109.228H78.7794V110.428ZM80.8035 113.512C80.8035 112.128 81.0355 111.048 81.4995 110.272C81.9715 109.488 82.7795 109.096 83.9235 109.096C85.0675 109.096 85.8715 109.488 86.3355 110.272C86.8075 111.048 87.0435 112.128 87.0435 113.512C87.0435 114.912 86.8075 116.008 86.3355 116.8C85.8715 117.584 85.0675 117.976 83.9235 117.976C82.7795 117.976 81.9715 117.584 81.4995 116.8C81.0355 116.008 80.8035 114.912 80.8035 113.512ZM85.6995 113.512C85.6995 112.864 85.6555 112.316 85.5675 111.868C85.4875 111.42 85.3195 111.056 85.0635 110.776C84.8075 110.488 84.4275 110.344 83.9235 110.344C83.4195 110.344 83.0395 110.488 82.7835 110.776C82.5275 111.056 82.3555 111.42 82.2675 111.868C82.1875 112.316 82.1475 112.864 82.1475 113.512C82.1475 114.184 82.1875 114.748 82.2675 115.204C82.3475 115.66 82.5155 116.028 82.7715 116.308C83.0355 116.588 83.4195 116.728 83.9235 116.728C84.4275 116.728 84.8075 116.588 85.0635 116.308C85.3275 116.028 85.4995 115.66 85.5795 115.204C85.6595 114.748 85.6995 114.184 85.6995 113.512Z" fill="#B5B5C3"/>
<path d="M68.7641 170.5V169.252H71.2601V178H69.8801V170.5H68.7641ZM73.8954 176.14C74.6634 175.476 75.2674 174.932 75.7074 174.508C76.1554 174.076 76.5274 173.628 76.8234 173.164C77.1194 172.7 77.2674 172.236 77.2674 171.772C77.2674 171.292 77.1514 170.916 76.9194 170.644C76.6954 170.372 76.3394 170.236 75.8514 170.236C75.3794 170.236 75.0114 170.388 74.7474 170.692C74.4914 170.988 74.3554 171.388 74.3394 171.892H73.0194C73.0434 170.98 73.3154 170.284 73.8354 169.804C74.3634 169.316 75.0314 169.072 75.8394 169.072C76.7114 169.072 77.3914 169.312 77.8794 169.792C78.3754 170.272 78.6234 170.912 78.6234 171.712C78.6234 172.288 78.4754 172.844 78.1794 173.38C77.8914 173.908 77.5434 174.384 77.1354 174.808C76.7354 175.224 76.2234 175.708 75.5994 176.26L75.0594 176.74H78.8634V177.88H73.0314V176.884L73.8954 176.14ZM80.0652 173.512C80.0652 172.128 80.2972 171.048 80.7612 170.272C81.2332 169.488 82.0412 169.096 83.1852 169.096C84.3292 169.096 85.1332 169.488 85.5972 170.272C86.0692 171.048 86.3052 172.128 86.3052 173.512C86.3052 174.912 86.0692 176.008 85.5972 176.8C85.1332 177.584 84.3292 177.976 83.1852 177.976C82.0412 177.976 81.2332 177.584 80.7612 176.8C80.2972 176.008 80.0652 174.912 80.0652 173.512ZM84.9612 173.512C84.9612 172.864 84.9172 172.316 84.8292 171.868C84.7492 171.42 84.5812 171.056 84.3252 170.776C84.0692 170.488 83.6892 170.344 83.1852 170.344C82.6812 170.344 82.3012 170.488 82.0452 170.776C81.7892 171.056 81.6172 171.42 81.5292 171.868C81.4492 172.316 81.4092 172.864 81.4092 173.512C81.4092 174.184 81.4492 174.748 81.5292 175.204C81.6092 175.66 81.7772 176.028 82.0332 176.308C82.2972 176.588 82.6812 176.728 83.1852 176.728C83.6892 176.728 84.0692 176.588 84.3252 176.308C84.5892 176.028 84.7612 175.66 84.8412 175.204C84.9212 174.748 84.9612 174.184 84.9612 173.512Z" fill="#B5B5C3"/>
<path d="M70.6481 235.624C70.7281 236.024 70.9001 236.328 71.1641 236.536C71.4281 236.744 71.7841 236.848 72.2321 236.848C72.8001 236.848 73.2161 236.624 73.4801 236.176C73.7441 235.728 73.8761 234.964 73.8761 233.884C73.6841 234.156 73.4121 234.368 73.0601 234.52C72.7161 234.664 72.3401 234.736 71.9321 234.736C71.4121 234.736 70.9401 234.632 70.5161 234.424C70.0921 234.208 69.7561 233.892 69.5081 233.476C69.2681 233.052 69.1481 232.54 69.1481 231.94C69.1481 231.06 69.4041 230.36 69.9161 229.84C70.4361 229.312 71.1481 229.048 72.0521 229.048C73.1401 229.048 73.9121 229.412 74.3681 230.14C74.8321 230.86 75.0641 231.968 75.0641 233.464C75.0641 234.496 74.9761 235.34 74.8001 235.996C74.6321 236.652 74.3361 237.148 73.9121 237.484C73.4881 237.82 72.9001 237.988 72.1481 237.988C71.2921 237.988 70.6321 237.764 70.1681 237.316C69.7041 236.868 69.4441 236.304 69.3881 235.624H70.6481ZM72.1721 233.584C72.6521 233.584 73.0281 233.436 73.3001 233.14C73.5801 232.836 73.7201 232.436 73.7201 231.94C73.7201 231.388 73.5721 230.96 73.2761 230.656C72.9881 230.344 72.5921 230.188 72.0881 230.188C71.5841 230.188 71.1841 230.348 70.8881 230.668C70.6001 230.98 70.4561 231.392 70.4561 231.904C70.4561 232.392 70.5961 232.796 70.8761 233.116C71.1641 233.428 71.5961 233.584 72.1721 233.584ZM76.5613 233.512C76.5613 232.128 76.7933 231.048 77.2573 230.272C77.7293 229.488 78.5373 229.096 79.6813 229.096C80.8253 229.096 81.6293 229.488 82.0933 230.272C82.5653 231.048 82.8013 232.128 82.8013 233.512C82.8013 234.912 82.5653 236.008 82.0933 236.8C81.6293 237.584 80.8253 237.976 79.6813 237.976C78.5373 237.976 77.7293 237.584 77.2573 236.8C76.7933 236.008 76.5613 234.912 76.5613 233.512ZM81.4573 233.512C81.4573 232.864 81.4133 232.316 81.3253 231.868C81.2453 231.42 81.0773 231.056 80.8213 230.776C80.5653 230.488 80.1853 230.344 79.6813 230.344C79.1773 230.344 78.7973 230.488 78.5413 230.776C78.2853 231.056 78.1133 231.42 78.0253 231.868C77.9453 232.316 77.9053 232.864 77.9053 233.512C77.9053 234.184 77.9453 234.748 78.0253 235.204C78.1053 235.66 78.2733 236.028 78.5293 236.308C78.7933 236.588 79.1773 236.728 79.6813 236.728C80.1853 236.728 80.5653 236.588 80.8213 236.308C81.0853 236.028 81.2573 235.66 81.3373 235.204C81.4173 234.748 81.4573 234.184 81.4573 233.512Z" fill="#B5B5C3"/>
<path d="M73.6481 291.28C73.5601 290.912 73.4001 290.636 73.1681 290.452C72.9361 290.268 72.6121 290.176 72.1961 290.176C71.5641 290.176 71.0921 290.42 70.7801 290.908C70.4681 291.388 70.3041 292.188 70.2881 293.308C70.4961 292.956 70.8001 292.684 71.2001 292.492C71.6001 292.3 72.0321 292.204 72.4961 292.204C73.0241 292.204 73.4881 292.32 73.8881 292.552C74.2961 292.776 74.6121 293.104 74.8361 293.536C75.0681 293.968 75.1841 294.484 75.1841 295.084C75.1841 295.644 75.0721 296.144 74.8481 296.584C74.6321 297.024 74.3081 297.372 73.8761 297.628C73.4441 297.876 72.9241 298 72.3161 298C71.4921 298 70.8441 297.82 70.3721 297.46C69.9081 297.092 69.5801 296.576 69.3881 295.912C69.2041 295.248 69.1121 294.42 69.1121 293.428C69.1121 290.5 70.1441 289.036 72.2081 289.036C73.0081 289.036 73.6361 289.252 74.0921 289.684C74.5561 290.116 74.8281 290.648 74.9081 291.28H73.6481ZM72.1961 293.356C71.7081 293.356 71.2921 293.504 70.9481 293.8C70.6121 294.088 70.4441 294.508 70.4441 295.06C70.4441 295.612 70.6001 296.052 70.9121 296.38C71.2321 296.7 71.6761 296.86 72.2441 296.86C72.7481 296.86 73.1441 296.704 73.4321 296.392C73.7281 296.08 73.8761 295.664 73.8761 295.144C73.8761 294.6 73.7321 294.168 73.4441 293.848C73.1641 293.52 72.7481 293.356 72.1961 293.356ZM76.6433 293.512C76.6433 292.128 76.8753 291.048 77.3393 290.272C77.8113 289.488 78.6193 289.096 79.7633 289.096C80.9073 289.096 81.7113 289.488 82.1753 290.272C82.6473 291.048 82.8833 292.128 82.8833 293.512C82.8833 294.912 82.6473 296.008 82.1753 296.8C81.7113 297.584 80.9073 297.976 79.7633 297.976C78.6193 297.976 77.8113 297.584 77.3393 296.8C76.8753 296.008 76.6433 294.912 76.6433 293.512ZM81.5393 293.512C81.5393 292.864 81.4953 292.316 81.4073 291.868C81.3273 291.42 81.1593 291.056 80.9033 290.776C80.6473 290.488 80.2673 290.344 79.7633 290.344C79.2593 290.344 78.8793 290.488 78.6233 290.776C78.3673 291.056 78.1953 291.42 78.1073 291.868C78.0273 292.316 77.9873 292.864 77.9873 293.512C77.9873 294.184 78.0273 294.748 78.1073 295.204C78.1873 295.66 78.3553 296.028 78.6113 296.308C78.8753 296.588 79.2593 296.728 79.7633 296.728C80.2673 296.728 80.6473 296.588 80.9033 296.308C81.1673 296.028 81.3393 295.66 81.4193 295.204C81.4993 294.748 81.5393 294.184 81.5393 293.512Z" fill="#B5B5C3"/>
<path d="M68.9201 351.412C68.9681 350.668 69.2521 350.088 69.7721 349.672C70.3001 349.256 70.9721 349.048 71.7881 349.048C72.3481 349.048 72.8321 349.148 73.2401 349.348C73.6481 349.548 73.9561 349.82 74.1641 350.164C74.3721 350.508 74.4761 350.896 74.4761 351.328C74.4761 351.824 74.3441 352.248 74.0801 352.6C73.8161 352.952 73.5001 353.188 73.1321 353.308V353.356C73.6041 353.5 73.9721 353.764 74.2361 354.148C74.5001 354.524 74.6321 355.008 74.6321 355.6C74.6321 356.072 74.5241 356.492 74.3081 356.86C74.0921 357.228 73.7721 357.52 73.3481 357.736C72.9241 357.944 72.4161 358.048 71.8241 358.048C70.9601 358.048 70.2481 357.828 69.6881 357.388C69.1361 356.94 68.8401 356.3 68.8001 355.468H70.1201C70.1521 355.892 70.3161 356.24 70.6121 356.512C70.9081 356.776 71.3081 356.908 71.8121 356.908C72.3001 356.908 72.6761 356.776 72.9401 356.512C73.2041 356.24 73.3361 355.892 73.3361 355.468C73.3361 354.908 73.1561 354.512 72.7961 354.28C72.4441 354.04 71.9001 353.92 71.1641 353.92H70.8521V352.792H71.1761C71.8241 352.784 72.3161 352.676 72.6521 352.468C72.9961 352.26 73.1681 351.932 73.1681 351.484C73.1681 351.1 73.0441 350.796 72.7961 350.572C72.5481 350.34 72.1961 350.224 71.7401 350.224C71.2921 350.224 70.9441 350.34 70.6961 350.572C70.4481 350.796 70.3001 351.076 70.2521 351.412H68.9201ZM76.0691 353.512C76.0691 352.128 76.3011 351.048 76.7651 350.272C77.2371 349.488 78.0451 349.096 79.1891 349.096C80.3331 349.096 81.1371 349.488 81.6011 350.272C82.0731 351.048 82.3091 352.128 82.3091 353.512C82.3091 354.912 82.0731 356.008 81.6011 356.8C81.1371 357.584 80.3331 357.976 79.1891 357.976C78.0451 357.976 77.2371 357.584 76.7651 356.8C76.3011 356.008 76.0691 354.912 76.0691 353.512ZM80.9651 353.512C80.9651 352.864 80.9211 352.316 80.8331 351.868C80.7531 351.42 80.5851 351.056 80.3291 350.776C80.0731 350.488 79.6931 350.344 79.1891 350.344C78.6851 350.344 78.3051 350.488 78.0491 350.776C77.7931 351.056 77.6211 351.42 77.5331 351.868C77.4531 352.316 77.4131 352.864 77.4131 353.512C77.4131 354.184 77.4531 354.748 77.5331 355.204C77.6131 355.66 77.7811 356.028 78.0371 356.308C78.3011 356.588 78.6851 356.728 79.1891 356.728C79.6931 356.728 80.0731 356.588 80.3291 356.308C80.5931 356.028 80.7651 355.66 80.8451 355.204C80.9251 354.748 80.9651 354.184 80.9651 353.512Z" fill="#B5B5C3"/>
<path d="M68.9441 413.512C68.9441 412.128 69.1761 411.048 69.6401 410.272C70.1121 409.488 70.9201 409.096 72.0641 409.096C73.2081 409.096 74.0121 409.488 74.4761 410.272C74.9481 411.048 75.1841 412.128 75.1841 413.512C75.1841 414.912 74.9481 416.008 74.4761 416.8C74.0121 417.584 73.2081 417.976 72.0641 417.976C70.9201 417.976 70.1121 417.584 69.6401 416.8C69.1761 416.008 68.9441 414.912 68.9441 413.512ZM73.8401 413.512C73.8401 412.864 73.7961 412.316 73.7081 411.868C73.6281 411.42 73.4601 411.056 73.2041 410.776C72.9481 410.488 72.5681 410.344 72.0641 410.344C71.5601 410.344 71.1801 410.488 70.9241 410.776C70.6681 411.056 70.4961 411.42 70.4081 411.868C70.3281 412.316 70.2881 412.864 70.2881 413.512C70.2881 414.184 70.3281 414.748 70.4081 415.204C70.4881 415.66 70.6561 416.028 70.9121 416.308C71.1761 416.588 71.5601 416.728 72.0641 416.728C72.5681 416.728 72.9481 416.588 73.2041 416.308C73.4681 416.028 73.6401 415.66 73.7201 415.204C73.8001 414.748 73.8401 414.184 73.8401 413.512Z" fill="#B5B5C3"/>
<path d="M240.96 297H284.306C286.515 297 288.306 298.791 288.306 301V410C288.306 412.209 286.515 414 284.306 414H240.96V297Z" fill="#E5EAEE"/>
<rect x="218.317" y="267" width="28.8188" height="147" rx="4" fill="#FFA800"/>
<path d="M417.991 248H461.336C463.546 248 465.336 249.791 465.336 252V410C465.336 412.209 463.546 414 461.336 414H417.991V248Z" fill="#E5EAEE"/>
<rect x="395.348" y="218" width="28.8188" height="196" rx="4" fill="#FFA800"/>
<path d="M595.02 197H638.365C640.575 197 642.365 198.791 642.365 201V410C642.365 412.209 640.575 414 638.365 414H595.02V197Z" fill="#E5EAEE"/>
<rect x="572.377" y="167" width="28.8188" height="247" rx="4" fill="#FFA800"/>
<path d="M772.051 236.535H815.396C817.605 236.535 819.396 238.326 819.396 240.535V410C819.396 412.209 817.605 414 815.396 414H772.051V236.535Z" fill="#E5EAEE"/>
<rect x="749.407" y="207" width="28.8189" height="207" rx="4" fill="#FFA800"/>
<path d="M949.08 205.671H992.425C994.634 205.671 996.425 207.462 996.425 209.671V410C996.425 412.209 994.634 414 992.425 414H949.08V205.671Z" fill="#E5EAEE"/>
<rect x="926.436" y="176" width="28.8189" height="238" rx="4" fill="#FFA800"/>
<path d="M1126.11 157H1169.46C1171.66 157 1173.46 158.791 1173.46 161V410C1173.46 412.209 1171.66 414 1169.46 414H1126.11V157Z" fill="#E5EAEE"/>
<rect x="1103.47" y="127" width="28.8187" height="287" rx="4" fill="#FFA800"/>
<rect x="1236" y="35" width="53" height="34" rx="12" fill="#464E5F"/>
<path d="M1253.76 47.624H1250.83V56H1253.76C1256.43 56 1258.17 54.356 1258.17 51.824C1258.17 49.28 1256.43 47.624 1253.76 47.624ZM1252.51 54.572V49.04H1253.7C1255.46 49.04 1256.46 50.084 1256.46 51.824C1256.46 53.564 1255.46 54.572 1253.7 54.572H1252.51ZM1259 52.652C1259 54.728 1260.34 56.108 1262.02 56.108C1263.08 56.108 1263.83 55.604 1264.23 55.028V56H1265.92V49.352H1264.23V50.3C1263.83 49.748 1263.1 49.244 1262.03 49.244C1260.34 49.244 1259 50.576 1259 52.652ZM1264.23 52.676C1264.23 53.936 1263.39 54.632 1262.47 54.632C1261.57 54.632 1260.71 53.912 1260.71 52.652C1260.71 51.392 1261.57 50.72 1262.47 50.72C1263.39 50.72 1264.23 51.416 1264.23 52.676ZM1270.39 53.996L1268.68 49.352H1266.79L1269.46 55.832L1268.02 59.144H1269.81L1273.92 49.352H1272.13L1270.39 53.996Z" fill="white"/>
<path d="M1189.52 56.012L1191.49 56L1193.13 50.036L1194.7 56H1196.68L1199.02 47.624H1197.21L1195.72 54.092L1194.12 47.624H1192.24L1190.54 54.128L1189.06 47.624H1187.26L1189.52 56.012ZM1202.98 50.624C1203.84 50.624 1204.54 51.176 1204.56 52.052H1201.4C1201.54 51.14 1202.17 50.624 1202.98 50.624ZM1206.13 53.912H1204.32C1204.1 54.356 1203.71 54.716 1202.99 54.716C1202.15 54.716 1201.48 54.164 1201.39 53.18H1206.25C1206.29 52.964 1206.3 52.748 1206.3 52.532C1206.3 50.552 1204.94 49.244 1203.02 49.244C1201.06 49.244 1199.69 50.576 1199.69 52.676C1199.69 54.764 1201.09 56.108 1203.02 56.108C1204.67 56.108 1205.77 55.136 1206.13 53.912ZM1210.38 50.624C1211.25 50.624 1211.94 51.176 1211.97 52.052H1208.81C1208.94 51.14 1209.58 50.624 1210.38 50.624ZM1213.54 53.912H1211.73C1211.51 54.356 1211.12 54.716 1210.4 54.716C1209.56 54.716 1208.88 54.164 1208.8 53.18H1213.66C1213.7 52.964 1213.71 52.748 1213.71 52.532C1213.71 50.552 1212.35 49.244 1210.43 49.244C1208.46 49.244 1207.1 50.576 1207.1 52.676C1207.1 54.764 1208.5 56.108 1210.43 56.108C1212.08 56.108 1213.18 55.136 1213.54 53.912ZM1214.93 56H1216.61V53.168L1218.87 56H1221.05L1218.1 52.688L1221.03 49.352H1218.85L1216.61 52.172V47.12H1214.93V56Z" fill="#B5B5C3"/>
<path d="M1119.83 56H1121.51V50.552L1123.76 56H1125.04L1127.28 50.552V56H1128.96V47.624H1127.06L1124.4 53.852L1121.74 47.624H1119.83V56ZM1137.04 52.676C1137.04 50.576 1135.54 49.244 1133.62 49.244C1131.7 49.244 1130.2 50.576 1130.2 52.676C1130.2 54.764 1131.65 56.108 1133.57 56.108C1135.5 56.108 1137.04 54.764 1137.04 52.676ZM1131.9 52.676C1131.9 51.344 1132.71 50.708 1133.6 50.708C1134.48 50.708 1135.31 51.344 1135.31 52.676C1135.31 53.996 1134.46 54.644 1133.57 54.644C1132.67 54.644 1131.9 53.996 1131.9 52.676ZM1142.93 56H1144.61V52.1C1144.61 50.264 1143.51 49.256 1141.96 49.256C1141.11 49.256 1140.39 49.616 1139.95 50.18V49.352H1138.27V56H1139.95V52.328C1139.95 51.26 1140.54 50.684 1141.45 50.684C1142.34 50.684 1142.93 51.26 1142.93 52.328V56ZM1146.47 53.936C1146.47 55.46 1147.32 56 1148.59 56H1149.65V54.584H1148.87C1148.34 54.584 1148.16 54.392 1148.16 53.948V50.732H1149.65V49.352H1148.16V47.708H1146.47V49.352H1145.68V50.732H1146.47V53.936ZM1150.86 56H1152.54V52.328C1152.54 51.26 1153.13 50.684 1154.04 50.684C1154.93 50.684 1155.52 51.26 1155.52 52.328V56H1157.2V52.1C1157.2 50.264 1156.1 49.256 1154.6 49.256C1153.72 49.256 1152.97 49.616 1152.54 50.18V47.12H1150.86V56Z" fill="#B5B5C3"/>
<path d="M36.992 35.234C36.992 36.476 36.272 37.358 34.67 37.358H32.402V33.164H34.67C36.272 33.164 36.992 33.974 36.992 35.234ZM30.35 31.49V44H32.402V38.996H33.968L36.848 44H39.296L36.2 38.816C38.306 38.294 39.098 36.71 39.098 35.234C39.098 33.2 37.64 31.49 34.67 31.49H30.35ZM45.899 35.648C47.429 35.648 48.635 36.62 48.671 38.15H43.181C43.397 36.584 44.513 35.648 45.899 35.648ZM50.543 41.048H48.329C47.951 41.822 47.249 42.434 45.989 42.434C44.477 42.434 43.307 41.444 43.163 39.806H50.741C50.795 39.464 50.813 39.14 50.813 38.798C50.813 35.882 48.815 33.92 45.989 33.92C43.055 33.92 41.039 35.918 41.039 39.032C41.039 42.146 43.145 44.162 45.989 44.162C48.419 44.162 49.985 42.776 50.543 41.048ZM52.1484 39.032C52.1484 42.146 54.1644 44.162 57.0084 44.162C59.4384 44.162 61.0224 42.812 61.5804 40.868H59.3664C58.9884 41.894 58.2324 42.434 57.0084 42.434C55.3524 42.434 54.2544 41.21 54.2544 39.032C54.2544 36.872 55.3524 35.648 57.0084 35.648C58.2324 35.648 59.0244 36.26 59.3664 37.214H61.5804C61.0224 35.126 59.4384 33.92 57.0084 33.92C54.1644 33.92 52.1484 35.936 52.1484 39.032ZM67.8014 35.648C69.3314 35.648 70.5374 36.62 70.5734 38.15H65.0834C65.2994 36.584 66.4154 35.648 67.8014 35.648ZM72.4454 41.048H70.2314C69.8534 41.822 69.1514 42.434 67.8914 42.434C66.3794 42.434 65.2094 41.444 65.0654 39.806H72.6434C72.6974 39.464 72.7154 39.14 72.7154 38.798C72.7154 35.882 70.7174 33.92 67.8914 33.92C64.9574 33.92 62.9414 35.918 62.9414 39.032C62.9414 42.146 65.0474 44.162 67.8914 44.162C70.3214 44.162 71.8874 42.776 72.4454 41.048ZM81.7728 44H83.8068V38.15C83.8068 35.378 82.0608 33.92 79.7388 33.92C78.5508 33.92 77.4528 34.406 76.7868 35.216V34.082H74.7348V44H76.7868V38.456C76.7868 36.638 77.7768 35.702 79.2888 35.702C80.7828 35.702 81.7728 36.638 81.7728 38.456V44ZM86.7482 41.246C86.7482 43.262 87.8462 44 89.6102 44H91.2302V42.29H89.9702C89.1062 42.29 88.8182 41.984 88.8182 41.246V35.756H91.2302V34.082H88.8182V31.616H86.7482V34.082H85.5782V35.756H86.7482V41.246ZM106.239 40.454C106.239 35.882 99.6153 37.646 99.6153 34.82C99.6153 33.614 100.533 33.038 101.721 33.074C103.017 33.11 103.755 33.884 103.827 34.73H106.095C105.915 32.588 104.223 31.328 101.829 31.328C99.2733 31.328 97.5273 32.696 97.5273 34.892C97.5273 39.5 104.169 37.538 104.169 40.562C104.169 41.624 103.359 42.398 101.919 42.398C100.497 42.398 99.7773 41.57 99.6873 40.544H97.4913C97.4913 42.758 99.4173 44.126 101.919 44.126C104.709 44.126 106.239 42.326 106.239 40.454ZM108.985 41.246C108.985 43.262 110.083 44 111.847 44H113.467V42.29H112.207C111.343 42.29 111.055 41.984 111.055 41.246V35.756H113.467V34.082H111.055V31.616H108.985V34.082H107.815V35.756H108.985V41.246ZM114.674 38.996C114.674 42.056 116.744 44.162 119.318 44.162C120.974 44.162 122.162 43.37 122.792 42.524V44H124.862V34.082H122.792V35.522C122.18 34.712 121.028 33.92 119.354 33.92C116.744 33.92 114.674 35.936 114.674 38.996ZM122.792 39.032C122.792 41.174 121.334 42.38 119.786 42.38C118.256 42.38 116.78 41.138 116.78 38.996C116.78 36.854 118.256 35.702 119.786 35.702C121.334 35.702 122.792 36.908 122.792 39.032ZM127.881 41.246C127.881 43.262 128.979 44 130.743 44H132.363V42.29H131.103C130.239 42.29 129.951 41.984 129.951 41.246V35.756H132.363V34.082H129.951V31.616H127.881V34.082H126.711V35.756H127.881V41.246ZM141.652 41.228C141.544 37.646 135.946 38.762 135.946 36.764C135.946 36.098 136.522 35.648 137.62 35.648C138.736 35.648 139.402 36.242 139.474 37.106H141.526C141.418 35.126 139.942 33.92 137.692 33.92C135.352 33.92 133.876 35.198 133.876 36.782C133.876 40.418 139.636 39.302 139.636 41.246C139.636 41.93 139.006 42.434 137.818 42.434C136.684 42.434 135.91 41.768 135.838 40.958H133.714C133.804 42.758 135.478 44.162 137.854 44.162C140.194 44.162 141.652 42.902 141.652 41.228Z" fill="#212121"/>
<path d="M29.9 71H31.268V65.288L33.824 71H34.772L37.316 65.288V71H38.684V62.66H37.22L34.304 69.2L31.376 62.66H29.9V71ZM46.782 67.688C46.782 65.612 45.294 64.28 43.41 64.28C41.526 64.28 40.038 65.612 40.038 67.688C40.038 69.764 41.466 71.108 43.35 71.108C45.246 71.108 46.782 69.764 46.782 67.688ZM41.43 67.688C41.43 66.188 42.354 65.468 43.386 65.468C44.406 65.468 45.378 66.188 45.378 67.688C45.378 69.188 44.37 69.92 43.35 69.92C42.318 69.92 41.43 69.188 41.43 67.688ZM49.5024 67.52C49.5024 66.116 50.1264 65.696 51.1344 65.696H51.4824V64.28C50.5464 64.28 49.8864 64.688 49.5024 65.348V64.388H48.1344V71H49.5024V67.52ZM55.5238 65.432C56.5438 65.432 57.3478 66.08 57.3718 67.1H53.7118C53.8558 66.056 54.5998 65.432 55.5238 65.432ZM58.6198 69.032H57.1438C56.8918 69.548 56.4238 69.956 55.5838 69.956C54.5758 69.956 53.7958 69.296 53.6998 68.204H58.7518C58.7878 67.976 58.7998 67.76 58.7998 67.532C58.7998 65.588 57.4678 64.28 55.5838 64.28C53.6278 64.28 52.2838 65.612 52.2838 67.688C52.2838 69.764 53.6878 71.108 55.5838 71.108C57.2038 71.108 58.2478 70.184 58.6198 69.032ZM63.4793 69.164C63.4793 70.508 64.2113 71 65.3873 71H66.4673V69.86H65.6273C65.0513 69.86 64.8593 69.656 64.8593 69.164V65.504H66.4673V64.388H64.8593V62.744H63.4793V64.388H62.6993V65.504H63.4793V69.164ZM67.7281 71H69.0961V67.304C69.0961 66.092 69.7561 65.468 70.7641 65.468C71.7601 65.468 72.4201 66.092 72.4201 67.304V71H73.7761V67.1C73.7761 65.252 72.6241 64.28 71.1481 64.28C70.2961 64.28 69.5521 64.604 69.0961 65.156V62.12H67.7281V71ZM75.0651 67.664C75.0651 69.704 76.4451 71.108 78.1611 71.108C79.2651 71.108 80.0571 70.58 80.4771 70.016V71H81.8571V64.388H80.4771V65.348C80.0691 64.808 79.3011 64.28 78.1851 64.28C76.4451 64.28 75.0651 65.624 75.0651 67.664ZM80.4771 67.688C80.4771 69.116 79.5051 69.92 78.4731 69.92C77.4531 69.92 76.4691 69.092 76.4691 67.664C76.4691 66.236 77.4531 65.468 78.4731 65.468C79.5051 65.468 80.4771 66.272 80.4771 67.688ZM88.3459 71H89.7019V67.1C89.7019 65.252 88.5379 64.28 86.9899 64.28C86.1979 64.28 85.4659 64.604 85.0219 65.144V64.388H83.6539V71H85.0219V67.304C85.0219 66.092 85.6819 65.468 86.6899 65.468C87.6859 65.468 88.3459 66.092 88.3459 67.304V71ZM98.5601 71H99.9041V69.176H101.02V67.988H99.9041V62.36H98.2481L94.2161 68.144V69.176H98.5601V71ZM95.7881 67.988L98.6201 63.752V67.988H95.7881ZM102.154 66.512C102.154 69.056 102.826 70.976 105.274 70.976C107.722 70.976 108.394 69.056 108.394 66.512C108.394 64.016 107.722 62.096 105.274 62.096C102.826 62.096 102.154 64.016 102.154 66.512ZM107.05 66.512C107.05 68.228 106.87 69.728 105.274 69.728C103.678 69.728 103.498 68.228 103.498 66.512C103.498 64.88 103.678 63.344 105.274 63.344C106.87 63.344 107.05 64.88 107.05 66.512ZM109.841 66.512C109.841 69.056 110.513 70.976 112.961 70.976C115.409 70.976 116.081 69.056 116.081 66.512C116.081 64.016 115.409 62.096 112.961 62.096C110.513 62.096 109.841 64.016 109.841 66.512ZM114.737 66.512C114.737 68.228 114.557 69.728 112.961 69.728C111.365 69.728 111.185 68.228 111.185 66.512C111.185 64.88 111.365 63.344 112.961 63.344C114.557 63.344 114.737 64.88 114.737 66.512ZM120.457 63.608V66.092H118.033V67.244H120.457V69.728H121.729V67.244H124.153V66.092H121.729V63.608H120.457ZM134.084 71H135.44V67.1C135.44 65.252 134.276 64.28 132.728 64.28C131.936 64.28 131.204 64.604 130.76 65.144V64.388H129.392V71H130.76V67.304C130.76 66.092 131.42 65.468 132.428 65.468C133.424 65.468 134.084 66.092 134.084 67.304V71ZM139.969 65.432C140.989 65.432 141.793 66.08 141.817 67.1H138.157C138.301 66.056 139.045 65.432 139.969 65.432ZM143.065 69.032H141.589C141.337 69.548 140.869 69.956 140.029 69.956C139.021 69.956 138.241 69.296 138.145 68.204H143.197C143.233 67.976 143.245 67.76 143.245 67.532C143.245 65.588 141.913 64.28 140.029 64.28C138.073 64.28 136.729 65.612 136.729 67.688C136.729 69.764 138.133 71.108 140.029 71.108C141.649 71.108 142.693 70.184 143.065 69.032ZM145.875 71H147.315L148.647 66.116L149.979 71H151.419L153.471 64.388H152.127L150.759 69.68L149.415 64.388H147.987L146.583 69.704L145.203 64.388H143.811L145.875 71ZM166.983 71H168.339V67.1C168.339 65.252 167.163 64.28 165.615 64.28C164.655 64.28 163.719 64.784 163.311 65.588C162.855 64.724 161.979 64.28 160.935 64.28C160.143 64.28 159.423 64.604 158.979 65.144V64.388H157.611V71H158.979V67.304C158.979 66.092 159.639 65.468 160.647 65.468C161.643 65.468 162.303 66.092 162.303 67.304V71H163.659V67.304C163.659 66.092 164.319 65.468 165.327 65.468C166.323 65.468 166.983 66.092 166.983 67.304V71ZM172.864 65.432C173.884 65.432 174.688 66.08 174.712 67.1H171.052C171.196 66.056 171.94 65.432 172.864 65.432ZM175.96 69.032H174.484C174.232 69.548 173.764 69.956 172.924 69.956C171.916 69.956 171.136 69.296 171.04 68.204H176.092C176.128 67.976 176.14 67.76 176.14 67.532C176.14 65.588 174.808 64.28 172.924 64.28C170.968 64.28 169.624 65.612 169.624 67.688C169.624 69.764 171.028 71.108 172.924 71.108C174.544 71.108 175.588 70.184 175.96 69.032ZM186.858 71H188.214V67.1C188.214 65.252 187.038 64.28 185.49 64.28C184.53 64.28 183.594 64.784 183.186 65.588C182.73 64.724 181.854 64.28 180.81 64.28C180.018 64.28 179.298 64.604 178.854 65.144V64.388H177.486V71H178.854V67.304C178.854 66.092 179.514 65.468 180.522 65.468C181.518 65.468 182.178 66.092 182.178 67.304V71H183.534V67.304C183.534 66.092 184.194 65.468 185.202 65.468C186.198 65.468 186.858 66.092 186.858 67.304V71ZM191.323 65.372V62.12H189.955V71H191.323V70.04C191.755 70.616 192.535 71.108 193.627 71.108C195.367 71.108 196.735 69.704 196.735 67.664C196.735 65.624 195.379 64.28 193.627 64.28C192.583 64.28 191.755 64.772 191.323 65.372ZM195.343 67.664C195.343 69.092 194.359 69.92 193.327 69.92C192.307 69.92 191.323 69.116 191.323 67.688C191.323 66.272 192.307 65.468 193.327 65.468C194.359 65.468 195.343 66.236 195.343 67.664ZM200.872 65.432C201.892 65.432 202.696 66.08 202.72 67.1H199.06C199.204 66.056 199.948 65.432 200.872 65.432ZM203.967 69.032H202.492C202.24 69.548 201.772 69.956 200.932 69.956C199.924 69.956 199.144 69.296 199.048 68.204H204.1C204.136 67.976 204.148 67.76 204.148 67.532C204.148 65.588 202.816 64.28 200.932 64.28C198.976 64.28 197.632 65.612 197.632 67.688C197.632 69.764 199.036 71.108 200.932 71.108C202.552 71.108 203.596 70.184 203.967 69.032ZM206.862 67.52C206.862 66.116 207.486 65.696 208.494 65.696H208.842V64.28C207.906 64.28 207.246 64.688 206.862 65.348V64.388H205.494V71H206.862V67.52ZM215.031 69.152C214.959 66.764 211.227 67.508 211.227 66.176C211.227 65.732 211.611 65.432 212.343 65.432C213.087 65.432 213.531 65.828 213.579 66.404H214.947C214.875 65.084 213.891 64.28 212.391 64.28C210.831 64.28 209.847 65.132 209.847 66.188C209.847 68.612 213.687 67.868 213.687 69.164C213.687 69.62 213.267 69.956 212.475 69.956C211.719 69.956 211.203 69.512 211.155 68.972H209.739C209.799 70.172 210.915 71.108 212.499 71.108C214.059 71.108 215.031 70.268 215.031 69.152Z" fill="#80808F"/>
</svg>
